<?xml version="1.0" encoding="UTF-8" standalone="no"?>
<!DOCTYPE svg PUBLIC "-//W3C//DTD SVG 1.1//EN"
 "http://www.w3.org/Graphics/SVG/1.1/DTD/svg11.dtd">
<!-- Generated by graphviz version 2.43.0 (0)
 -->
<!-- Title: voice_chat_architecture Pages: 1 -->
<svg width="1741pt" height="357pt"
 viewBox="0.00 0.00 1740.60 357.20" xmlns="http://www.w3.org/2000/svg" xmlns:xlink="http://www.w3.org/1999/xlink">
<g id="graph0" class="graph" transform="scale(1 1) rotate(0) translate(28.8 335.6)">
<title>voice_chat_architecture</title>
<polygon fill="#ffffff" stroke="transparent" points="-28.8,21.6 -28.8,-335.6 1711.8,-335.6 1711.8,21.6 -28.8,21.6"/>
<text text-anchor="middle" x="841.5" y="-294" font-family="Noto Sans CJK SC,WenQuanYi Micro Hei,sans-serif" font-size="20.00" fill="#1e293b">voice_chat 标准模式架构</text>
<g id="clust1" class="cluster">
<title>cluster_input</title>
<path fill="#f0fdfa" stroke="#0891b2" stroke-width="1.5" d="M20,-77C20,-77 366,-77 366,-77 372,-77 378,-83 378,-89 378,-89 378,-138 378,-138 378,-144 372,-150 366,-150 366,-150 20,-150 20,-150 14,-150 8,-144 8,-138 8,-138 8,-89 8,-89 8,-83 14,-77 20,-77"/>
<text text-anchor="middle" x="40.5" y="-136.4" font-family="Noto Sans CJK SC,WenQuanYi Micro Hei,sans-serif" font-size="12.00" fill="#0e7490">音频输入</text>
</g>
<g id="clust2" class="cluster">
<title>cluster_analysis</title>
<path fill="#f0fdf4" stroke="#16a34a" stroke-width="1.5" d="M470,-77C470,-77 887,-77 887,-77 893,-77 899,-83 899,-89 899,-89 899,-155 899,-155 899,-161 893,-167 887,-167 887,-167 470,-167 470,-167 464,-167 458,-161 458,-155 458,-155 458,-89 458,-89 458,-83 464,-77 470,-77"/>
<text text-anchor="middle" x="490.5" y="-153.4" font-family="Noto Sans CJK SC,WenQuanYi Micro Hei,sans-serif" font-size="12.00" fill="#15803d">语音分析</text>
</g>
<g id="clust3" class="cluster">
<title>cluster_ai</title>
<path fill="#f0fdf4" stroke="#16a34a" stroke-width="1.5" d="M1022,-88C1022,-88 1238,-88 1238,-88 1244,-88 1250,-94 1250,-100 1250,-100 1250,-166 1250,-166 1250,-172 1244,-178 1238,-178 1238,-178 1022,-178 1022,-178 1016,-178 1010,-172 1010,-166 1010,-166 1010,-100 1010,-100 1010,-94 1016,-88 1022,-88"/>
<text text-anchor="middle" x="1043.5" y="-164.4" font-family="Noto Sans CJK SC,WenQuanYi Micro Hei,sans-serif" font-size="12.00" fill="#15803d"> &#160;AI 管线 &#160;</text>
</g>
<g id="clust4" class="cluster">
<title>cluster_mcp</title>
<path fill="#fffbeb" stroke="#d97706" stroke-width="1.5" stroke-dasharray="5,2" d="M813.5,-203C813.5,-203 905.5,-203 905.5,-203 911.5,-203 917.5,-209 917.5,-215 917.5,-215 917.5,-264 917.5,-264 917.5,-270 911.5,-276 905.5,-276 905.5,-276 813.5,-276 813.5,-276 807.5,-276 801.5,-270 801.5,-264 801.5,-264 801.5,-215 801.5,-215 801.5,-209 807.5,-203 813.5,-203"/>
<text text-anchor="middle" x="859.5" y="-262.4" font-family="Noto Sans CJK SC,WenQuanYi Micro Hei,sans-serif" font-size="12.00" fill="#b45309">MCP 工具（可选）</text>
</g>
<g id="clust5" class="cluster">
<title>cluster_output</title>
<path fill="#f0fdfa" stroke="#0891b2" stroke-width="1.5" d="M1331,-96C1331,-96 1663,-96 1663,-96 1669,-96 1675,-102 1675,-108 1675,-108 1675,-157 1675,-157 1675,-163 1669,-169 1663,-169 1663,-169 1331,-169 1331,-169 1325,-169 1319,-163 1319,-157 1319,-157 1319,-108 1319,-108 1319,-102 1325,-96 1331,-96"/>
<text text-anchor="middle" x="1351.5" y="-155.4" font-family="Noto Sans CJK SC,WenQuanYi Micro Hei,sans-serif" font-size="12.00" fill="#0e7490">音频输出</text>
</g>
<!-- mic -->
<g id="node1" class="node">
<title>mic</title>
<polygon fill="#e8f4f8" stroke="#0891b2" stroke-width="1.5" points="58,-115 16,-115 16,-91 58,-91 70,-103 58,-115"/>
<text text-anchor="middle" x="43" y="-100.2" font-family="Noto Sans CJK SC,WenQuanYi Micro Hei,sans-serif" font-size="11.00">麦克风</text>
</g>
<!-- capture -->
<g id="node2" class="node">
<title>capture</title>
<path fill="#dbeafe" stroke="#2563eb" stroke-width="1.5" d="M189,-121C189,-121 149,-121 149,-121 143,-121 137,-115 137,-109 137,-109 137,-97 137,-97 137,-91 143,-85 149,-85 149,-85 189,-85 189,-85 195,-85 201,-91 201,-97 201,-97 201,-109 201,-109 201,-115 195,-121 189,-121"/>
<text text-anchor="middle" x="169" y="-106.2" font-family="Noto Sans CJK SC,WenQuanYi Micro Hei,sans-serif" font-size="11.00">音频采集</text>
<text text-anchor="middle" x="169" y="-94.2" font-family="Noto Sans CJK SC,WenQuanYi Micro Hei,sans-serif" font-size="11.00">48 kHz</text>
</g>
<!-- mic&#45;&gt;capture -->
<g id="edge1" class="edge">
<title>mic&#45;&gt;capture</title>
<path fill="none" stroke="#475569" stroke-width="1.2" d="M70.3,-103C87.57,-103 110.45,-103 129.73,-103"/>
<polygon fill="#475569" stroke="#475569" stroke-width="1.2" points="129.92,-105.45 136.92,-103 129.92,-100.55 129.92,-105.45"/>
</g>
<!-- resample_in -->
<g id="node3" class="node">
<title>resample_in</title>
<path fill="#dbeafe" stroke="#2563eb" stroke-width="1.5" d="M358,-121C358,-121 280,-121 280,-121 274,-121 268,-115 268,-109 268,-109 268,-97 268,-97 268,-91 274,-85 280,-85 280,-85 358,-85 358,-85 364,-85 370,-91 370,-97 370,-97 370,-109 370,-109 370,-115 364,-121 358,-121"/>
<text text-anchor="middle" x="319" y="-106.2" font-family="Noto Sans CJK SC,WenQuanYi Micro Hei,sans-serif" font-size="11.00">重采样</text>
<text text-anchor="middle" x="319" y="-94.2" font-family="Noto Sans CJK SC,WenQuanYi Micro Hei,sans-serif" font-size="11.00">48 kHz → 16 kHz</text>
</g>
<!-- capture&#45;&gt;resample_in -->
<g id="edge2" class="edge">
<title>capture&#45;&gt;resample_in</title>
<path fill="none" stroke="#475569" stroke-width="1.2" d="M201.03,-103C218.31,-103 240.39,-103 260.7,-103"/>
<polygon fill="#475569" stroke="#475569" stroke-width="1.2" points="260.79,-105.45 267.79,-103 260.79,-100.55 260.79,-105.45"/>
</g>
<!-- vad -->
<g id="node4" class="node">
<title>vad</title>
<path fill="#dcfce7" stroke="#16a34a" stroke-width="1.5" d="M540,-121C540,-121 478,-121 478,-121 472,-121 466,-115 466,-109 466,-109 466,-97 466,-97 466,-91 472,-85 478,-85 478,-85 540,-85 540,-85 546,-85 552,-91 552,-97 552,-97 552,-109 552,-109 552,-115 546,-121 540,-121"/>
<text text-anchor="middle" x="509" y="-106.2" font-family="Noto Sans CJK SC,WenQuanYi Micro Hei,sans-serif" font-size="11.00">VAD</text>
<text text-anchor="middle" x="509" y="-94.2" font-family="Noto Sans CJK SC,WenQuanYi Micro Hei,sans-serif" font-size="11.00">语音活动检测</text>
</g>
<!-- resample_in&#45;&gt;vad -->
<g id="edge3" class="edge">
<title>resample_in&#45;&gt;vad</title>
<path fill="none" stroke="#475569" stroke-width="1.2" d="M370.38,-103C397.74,-103 431.43,-103 458.63,-103"/>
<polygon fill="#475569" stroke="#475569" stroke-width="1.2" points="458.75,-105.45 465.75,-103 458.75,-100.55 458.75,-105.45"/>
<text text-anchor="middle" x="418" y="-105.8" font-family="Noto Sans CJK SC,WenQuanYi Micro Hei,sans-serif" font-size="9.00" fill="#64748b">16 kHz</text>
</g>
<!-- voiceprint -->
<g id="node5" class="node">
<title>voiceprint</title>
<path fill="#fef3c7" stroke="#d97706" stroke-width="1.5" stroke-dasharray="5,2" d="M698,-138C698,-138 658,-138 658,-138 652,-138 646,-132 646,-126 646,-126 646,-114 646,-114 646,-108 652,-102 658,-102 658,-102 698,-102 698,-102 704,-102 710,-108 710,-114 710,-114 710,-126 710,-126 710,-132 704,-138 698,-138"/>
<text text-anchor="middle" x="678" y="-123.2" font-family="Noto Sans CJK SC,WenQuanYi Micro Hei,sans-serif" font-size="11.00">声纹验证</text>
<text text-anchor="middle" x="678" y="-111.2" font-family="Noto Sans CJK SC,WenQuanYi Micro Hei,sans-serif" font-size="11.00">（可选）</text>
</g>
<!-- vad&#45;&gt;voiceprint -->
<g id="edge4" class="edge">
<title>vad&#45;&gt;voiceprint</title>
<path fill="none" stroke="#475569" stroke-width="1.2" d="M552.14,-107.29C578.81,-110.01 613.02,-113.49 638.88,-116.12"/>
<polygon fill="#475569" stroke="#475569" stroke-width="1.2" points="638.73,-118.57 645.94,-116.84 639.23,-113.69 638.73,-118.57"/>
<text text-anchor="middle" x="599" y="-115.8" font-family="Noto Sans CJK SC,WenQuanYi Micro Hei,sans-serif" font-size="9.00" fill="#64748b">语音帧</text>
</g>
<!-- bargein -->
<g id="node13" class="node">
<title>bargein</title>
<path fill="#fee2e2" stroke="#dc2626" stroke-width="2" d="M891,-48C891,-48 827,-48 827,-48 821,-48 815,-42 815,-36 815,-36 815,-12 815,-12 815,-6 821,0 827,0 827,0 891,0 891,0 897,0 903,-6 903,-12 903,-12 903,-36 903,-36 903,-42 897,-48 891,-48"/>
<text text-anchor="middle" x="859" y="-33.2" font-family="Noto Sans CJK SC,WenQuanYi Micro Hei,sans-serif" font-size="11.00" fill="#991b1b">打断控制</text>
<text text-anchor="middle" x="859" y="-21.2" font-family="Noto Sans CJK SC,WenQuanYi Micro Hei,sans-serif" font-size="11.00" fill="#991b1b">取消 LLM/TTS</text>
<text text-anchor="middle" x="859" y="-9.2" font-family="Noto Sans CJK SC,WenQuanYi Micro Hei,sans-serif" font-size="11.00" fill="#991b1b">清空播放队列</text>
</g>
<!-- vad&#45;&gt;bargein -->
<g id="edge13" class="edge">
<title>vad&#45;&gt;bargein</title>
<path fill="none" stroke="#dc2626" stroke-width="2" d="M552.19,-88.46C578.85,-79.64 614.17,-68.66 646,-61 700.71,-47.83 764.43,-37.35 807.61,-30.95"/>
<polygon fill="#dc2626" stroke="#dc2626" stroke-width="2" points="808.06,-33.37 814.63,-29.92 807.35,-28.52 808.06,-33.37"/>
<text text-anchor="middle" x="678" y="-73.8" font-family="Noto Sans CJK SC,WenQuanYi Micro Hei,sans-serif" font-size="9.00" fill="#64748b">播放期间</text>
<text text-anchor="middle" x="678" y="-63.8" font-family="Noto Sans CJK SC,WenQuanYi Micro Hei,sans-serif" font-size="9.00" fill="#64748b">检测到语音</text>
</g>
<!-- asr -->
<g id="node6" class="node">
<title>asr</title>
<path fill="#dcfce7" stroke="#16a34a" stroke-width="1.5" d="M879,-138C879,-138 839,-138 839,-138 833,-138 827,-132 827,-126 827,-126 827,-114 827,-114 827,-108 833,-102 839,-102 839,-102 879,-102 879,-102 885,-102 891,-108 891,-114 891,-114 891,-126 891,-126 891,-132 885,-138 879,-138"/>
<text text-anchor="middle" x="859" y="-123.2" font-family="Noto Sans CJK SC,WenQuanYi Micro Hei,sans-serif" font-size="11.00">ASR</text>
<text text-anchor="middle" x="859" y="-111.2" font-family="Noto Sans CJK SC,WenQuanYi Micro Hei,sans-serif" font-size="11.00">语音识别</text>
</g>
<!-- voiceprint&#45;&gt;asr -->
<g id="edge5" class="edge">
<title>voiceprint&#45;&gt;asr</title>
<path fill="none" stroke="#475569" stroke-width="1.2" d="M710.18,-120C740.63,-120 787.04,-120 819.71,-120"/>
<polygon fill="#475569" stroke="#475569" stroke-width="1.2" points="819.88,-122.45 826.88,-120 819.88,-117.55 819.88,-122.45"/>
<text text-anchor="middle" x="757" y="-122.8" font-family="Noto Sans CJK SC,WenQuanYi Micro Hei,sans-serif" font-size="9.00" fill="#64748b">已验证</text>
</g>
<!-- llm -->
<g id="node7" class="node">
<title>llm</title>
<path fill="#dcfce7" stroke="#16a34a" stroke-width="1.5" d="M1081,-149C1081,-149 1030,-149 1030,-149 1024,-149 1018,-143 1018,-137 1018,-137 1018,-125 1018,-125 1018,-119 1024,-113 1030,-113 1030,-113 1081,-113 1081,-113 1087,-113 1093,-119 1093,-125 1093,-125 1093,-137 1093,-137 1093,-143 1087,-149 1081,-149"/>
<text text-anchor="middle" x="1055.5" y="-134.2" font-family="Noto Sans CJK SC,WenQuanYi Micro Hei,sans-serif" font-size="11.00">LLM</text>
<text text-anchor="middle" x="1055.5" y="-122.2" font-family="Noto Sans CJK SC,WenQuanYi Micro Hei,sans-serif" font-size="11.00">大语言模型</text>
</g>
<!-- asr&#45;&gt;llm -->
<g id="edge6" class="edge">
<title>asr&#45;&gt;llm</title>
<path fill="none" stroke="#475569" stroke-width="1.2" d="M891.25,-121.77C923.57,-123.59 974.29,-126.46 1010.62,-128.52"/>
<polygon fill="#475569" stroke="#475569" stroke-width="1.2" points="1010.56,-130.97 1017.69,-128.92 1010.84,-126.08 1010.56,-130.97"/>
<text text-anchor="middle" x="966.5" y="-128.8" font-family="Noto Sans CJK SC,WenQuanYi Micro Hei,sans-serif" font-size="9.00" fill="#64748b">文本</text>
</g>
<!-- tts -->
<g id="node8" class="node">
<title>tts</title>
<path fill="#dcfce7" stroke="#16a34a" stroke-width="1.5" d="M1230,-140C1230,-140 1190,-140 1190,-140 1184,-140 1178,-134 1178,-128 1178,-128 1178,-116 1178,-116 1178,-110 1184,-104 1190,-104 1190,-104 1230,-104 1230,-104 1236,-104 1242,-110 1242,-116 1242,-116 1242,-128 1242,-128 1242,-134 1236,-140 1230,-140"/>
<text text-anchor="middle" x="1210" y="-125.2" font-family="Noto Sans CJK SC,WenQuanYi Micro Hei,sans-serif" font-size="11.00">TTS</text>
<text text-anchor="middle" x="1210" y="-113.2" font-family="Noto Sans CJK SC,WenQuanYi Micro Hei,sans-serif" font-size="11.00">语音合成</text>
</g>
<!-- llm&#45;&gt;tts -->
<g id="edge7" class="edge">
<title>llm&#45;&gt;tts</title>
<path fill="none" stroke="#475569" stroke-width="1.2" d="M1093.03,-128.84C1116.51,-127.46 1146.95,-125.66 1170.76,-124.26"/>
<polygon fill="#475569" stroke="#475569" stroke-width="1.2" points="1171.08,-126.69 1177.92,-123.83 1170.79,-121.8 1171.08,-126.69"/>
<text text-anchor="middle" x="1135.5" y="-128.8" font-family="Noto Sans CJK SC,WenQuanYi Micro Hei,sans-serif" font-size="9.00" fill="#64748b">句子</text>
</g>
<!-- mcp -->
<g id="node9" class="node">
<title>mcp</title>
<path fill="#fef3c7" stroke="#d97706" stroke-width="1.5" d="M885.5,-247C885.5,-247 832.5,-247 832.5,-247 826.5,-247 820.5,-241 820.5,-235 820.5,-235 820.5,-223 820.5,-223 820.5,-217 826.5,-211 832.5,-211 832.5,-211 885.5,-211 885.5,-211 891.5,-211 897.5,-217 897.5,-223 897.5,-223 897.5,-235 897.5,-235 897.5,-241 891.5,-247 885.5,-247"/>
<text text-anchor="middle" x="859" y="-226.2" font-family="Noto Sans CJK SC,WenQuanYi Micro Hei,sans-serif" font-size="11.00">MCP 管理器</text>
</g>
<!-- llm&#45;&gt;mcp -->
<g id="edge11" class="edge">
<title>llm&#45;&gt;mcp</title>
<path fill="none" stroke="#d97706" stroke-width="1.2" stroke-dasharray="5,2" d="M1041.11,-149.1C1028.41,-164.94 1007.92,-187.33 985,-200 960.42,-213.58 929.74,-220.82 904.93,-224.67"/>
<polygon fill="#d97706" stroke="#d97706" stroke-width="1.2" points="904.33,-222.28 897.76,-225.71 905.04,-227.13 904.33,-222.28"/>
<text text-anchor="middle" x="966.5" y="-216.8" font-family="Noto Sans CJK SC,WenQuanYi Micro Hei,sans-serif" font-size="9.00" fill="#64748b">工具调用</text>
</g>
<!-- resample_out -->
<g id="node10" class="node">
<title>resample_out</title>
<path fill="#dbeafe" stroke="#2563eb" stroke-width="1.5" d="M1403,-140C1403,-140 1339,-140 1339,-140 1333,-140 1327,-134 1327,-128 1327,-128 1327,-116 1327,-116 1327,-110 1333,-104 1339,-104 1339,-104 1403,-104 1403,-104 1409,-104 1415,-110 1415,-116 1415,-116 1415,-128 1415,-128 1415,-134 1409,-140 1403,-140"/>
<text text-anchor="middle" x="1371" y="-125.2" font-family="Noto Sans CJK SC,WenQuanYi Micro Hei,sans-serif" font-size="11.00">重采样</text>
<text text-anchor="middle" x="1371" y="-113.2" font-family="Noto Sans CJK SC,WenQuanYi Micro Hei,sans-serif" font-size="11.00">TTS → 48 kHz</text>
</g>
<!-- tts&#45;&gt;resample_out -->
<g id="edge8" class="edge">
<title>tts&#45;&gt;resample_out</title>
<path fill="none" stroke="#475569" stroke-width="1.2" d="M1242.03,-122C1264.09,-122 1294.2,-122 1319.66,-122"/>
<polygon fill="#475569" stroke="#475569" stroke-width="1.2" points="1319.71,-124.45 1326.71,-122 1319.71,-119.55 1319.71,-124.45"/>
<text text-anchor="middle" x="1284.5" y="-124.8" font-family="Noto Sans CJK SC,WenQuanYi Micro Hei,sans-serif" font-size="9.00" fill="#64748b">音频</text>
</g>
<!-- mcp&#45;&gt;llm -->
<g id="edge12" class="edge">
<title>mcp&#45;&gt;llm</title>
<path fill="none" stroke="#d97706" stroke-width="1.2" stroke-dasharray="5,2" d="M896.13,-210.8C929.02,-194.23 977.59,-169.75 1012.26,-152.28"/>
<polygon fill="#d97706" stroke="#d97706" stroke-width="1.2" points="1013.42,-154.44 1018.57,-149.11 1011.21,-150.07 1013.42,-154.44"/>
<text text-anchor="middle" x="966.5" y="-184.8" font-family="Noto Sans CJK SC,WenQuanYi Micro Hei,sans-serif" font-size="9.00" fill="#64748b">返回结果</text>
</g>
<!-- player -->
<g id="node11" class="node">
<title>player</title>
<path fill="#dbeafe" stroke="#2563eb" stroke-width="1.5" d="M1534,-140C1534,-140 1494,-140 1494,-140 1488,-140 1482,-134 1482,-128 1482,-128 1482,-116 1482,-116 1482,-110 1488,-104 1494,-104 1494,-104 1534,-104 1534,-104 1540,-104 1546,-110 1546,-116 1546,-116 1546,-128 1546,-128 1546,-134 1540,-140 1534,-140"/>
<text text-anchor="middle" x="1514" y="-125.2" font-family="Noto Sans CJK SC,WenQuanYi Micro Hei,sans-serif" font-size="11.00">音频播放</text>
<text text-anchor="middle" x="1514" y="-113.2" font-family="Noto Sans CJK SC,WenQuanYi Micro Hei,sans-serif" font-size="11.00">48 kHz</text>
</g>
<!-- resample_out&#45;&gt;player -->
<g id="edge9" class="edge">
<title>resample_out&#45;&gt;player</title>
<path fill="none" stroke="#475569" stroke-width="1.2" d="M1415.07,-122C1434.09,-122 1456.26,-122 1474.7,-122"/>
<polygon fill="#475569" stroke="#475569" stroke-width="1.2" points="1474.82,-124.45 1481.82,-122 1474.82,-119.55 1474.82,-124.45"/>
</g>
<!-- speaker -->
<g id="node12" class="node">
<title>speaker</title>
<polygon fill="#e8f4f8" stroke="#0891b2" stroke-width="1.5" points="1655,-134 1613,-134 1613,-110 1655,-110 1667,-122 1655,-134"/>
<text text-anchor="middle" x="1640" y="-119.2" font-family="Noto Sans CJK SC,WenQuanYi Micro Hei,sans-serif" font-size="11.00">扬声器</text>
</g>
<!-- player&#45;&gt;speaker -->
<g id="edge10" class="edge">
<title>player&#45;&gt;speaker</title>
<path fill="none" stroke="#475569" stroke-width="1.2" d="M1546.29,-122C1564.41,-122 1587.2,-122 1605.65,-122"/>
<polygon fill="#475569" stroke="#475569" stroke-width="1.2" points="1605.75,-124.45 1612.75,-122 1605.75,-119.55 1605.75,-124.45"/>
</g>
<!-- bargein&#45;&gt;llm -->
<g id="edge14" class="edge">
<title>bargein&#45;&gt;llm</title>
<path fill="none" stroke="#dc2626" stroke-width="1.5" stroke-dasharray="5,2" d="M903.17,-47.75C936.74,-66.22 982.93,-91.63 1015.42,-109.5"/>
<polygon fill="#dc2626" stroke="#dc2626" stroke-width="1.5" points="1014.41,-111.74 1021.73,-112.97 1016.77,-107.45 1014.41,-111.74"/>
<text text-anchor="middle" x="966.5" y="-92.8" font-family="Noto Sans CJK SC,WenQuanYi Micro Hei,sans-serif" font-size="9.00" fill="#64748b">停止</text>
</g>
<!-- bargein&#45;&gt;tts -->
<g id="edge15" class="edge">
<title>bargein&#45;&gt;tts</title>
<path fill="none" stroke="#dc2626" stroke-width="1.5" stroke-dasharray="5,2" d="M903.25,-33.56C950.26,-44.24 1027.45,-62.58 1093,-82 1119.28,-89.79 1148.46,-99.85 1170.97,-107.94"/>
<polygon fill="#dc2626" stroke="#dc2626" stroke-width="1.5" points="1170.32,-110.31 1177.73,-110.38 1171.98,-105.7 1170.32,-110.31"/>
<text text-anchor="middle" x="1055.5" y="-84.8" font-family="Noto Sans CJK SC,WenQuanYi Micro Hei,sans-serif" font-size="9.00" fill="#64748b">停止</text>
</g>
<!-- bargein&#45;&gt;player -->
<g id="edge16" class="edge">
<title>bargein&#45;&gt;player</title>
<path fill="none" stroke="#dc2626" stroke-width="1.5" stroke-dasharray="5,2" d="M903.39,-29.62C917.6,-31.4 933.47,-33.35 948,-35 1155.31,-58.61 1212.36,-33.29 1415,-83 1435.59,-88.05 1457.6,-96.51 1475.54,-104.26"/>
<polygon fill="#dc2626" stroke="#dc2626" stroke-width="1.5" points="1474.56,-106.51 1481.95,-107.08 1476.53,-102.02 1474.56,-106.51"/>
<text text-anchor="middle" x="1210" y="-56.8" font-family="Noto Sans CJK SC,WenQuanYi Micro Hei,sans-serif" font-size="9.00" fill="#64748b">清空</text>
</g>
</g>
</svg>
